<svg xmlns="http://www.w3.org/2000/svg" width="512" height="512" viewBox="0 0 135.46666 135.46667">
  <defs/>
  <path fill="#f7df1e" stroke="#404040" stroke-opacity=".270707" stroke-width="6.49285" d="m 201.24854,122.23986 -32.97691,11.03974 -31.12448,-15.51193 -11.03973,-32.976914 15.51193,-31.124474 32.97691,-11.039738 31.12447,15.511928 11.03974,32.976916 z" transform="matrix(-0.42454061,1.2329555,-1.2329555,-0.42454061,248.95623,-106.29743)"/>
  <path fill="#606060" fill-rule="evenodd" d="m 45.652344,12.751953 -0.246094,0.09961 44.408203,109.863277 0.246094,-0.0996 z" color="#000" style="-inkscape-stroke:none"/>
  <path fill="#606060" fill-rule="evenodd" d="M45.396484 12.800781l-.9375 109.474609.265625.002.9375-109.474606zM90.742187 13.189453l-.9375 109.474607.265625.002.9375-109.474614z" color="#000" style="-inkscape-stroke:none"/>
  <path fill="#606060" fill-rule="evenodd" d="m -0.68164062,67.599609 v 0.267578 H 134.78516 v -0.267578 z" color="#000" style="-inkscape-stroke:none"/>
  <path fill="#606060" fill-rule="evenodd" d="M131.93387 66.549911l3.20545 1.178723-3.20545 1.178723c.5121-.695918.50915-1.648054 0-2.357446zM114.9082 19.869141L19.117187 115.6582 19.306641 115.8457 115.0957 20.056641z" color="#000" style="-inkscape-stroke:none"/>
  <path fill="#606060" fill-rule="evenodd" d="m 112.14874,21.141817 3.10007,-1.433108 -1.43311,3.100075 c -0.12998,-0.854195 -0.80533,-1.52537 -1.66696,-1.666967 z" color="#000" style="-inkscape-stroke:none"/>
  <g>
    <path fill="#606060" fill-rule="evenodd" d="M 59.162109,0.171875 V 135.63867 h 0.267578 V 0.171875 Z" color="#000" style="-inkscape-stroke:none"/>
    <path fill="#606060" fill-rule="evenodd" d="m 58.112664,3.0236494 1.178723,-3.20544501 1.178723,3.20544511 c -0.695918,-0.5120961 -1.648054,-0.5091453 -2.357446,-10e-8 z" color="#000" style="-inkscape-stroke:none"/>
  </g>
  <g>
    <g fill="#404040" stroke-width=".264583" aria-label="OB" font-family="Arial Black" font-size="52.9167px" font-weight="900" style="line-height:1.25;-inkscape-font-specification:'Arial Black, Heavy';font-variant-ligatures:none">
      <path d="M27.412773 67.759174q0-9.275925 5.167646-14.443571 5.167646-5.167646 14.391895-5.167646 9.456793 0 14.572763 5.090131 5.11597 5.064294 5.11597 14.211028 0 6.640425-2.247927 10.903733-2.222088 4.23747-6.459558 6.614588-4.211631 2.351279-10.51616 2.351279-6.407881 0-10.619513-2.041221-4.185794-2.04122-6.795455-6.459557Q27.412773 74.3996 27.412773 67.759174zm11.704719.05168q0 5.736087 2.118735 8.242396 2.144573 2.506308 5.813602 2.506308 3.772382 0 5.83944-2.454632 2.067059-2.454632 2.067059-8.810837 0-5.348514-2.170412-7.803146-2.144573-2.48047-5.83944-2.48047-3.539838 0-5.684411 2.506309-2.144573 2.506308-2.144573 8.294072zM73.043089 48.793912h21.91082q5.477701 0 8.397421 2.713015 2.94556 2.713014 2.94556 6.71794 0 3.35897-2.09289 5.761926-1.39527 1.60197-4.08244 2.532146 4.08244.981853 5.99447 3.384809 1.93786 2.377117 1.93786 5.994469 0 2.945559-1.36942 5.296838-1.36943 2.351279-3.74655 3.720705-1.47278.852662-4.444173 1.240235-3.95325.516765-5.245161.516765H73.043089zm11.808072 14.856984h5.090131q2.738853 0 3.79822-.930177 1.085206-.956014 1.085206-2.738852 0-1.653647-1.085206-2.583823-1.059367-.930177-3.720705-.930177h-5.167646zm0 14.882821h5.968631q3.023073 0 4.263308-1.059367 1.240235-1.085206 1.240235-2.893882 0-1.679485-1.240235-2.687177-1.214397-1.033529-4.289146-1.033529h-5.942793z"/>
    </g>
  </g>
  <g>
    <path fill="none" stroke="#404040" stroke-width="6.49285" d="m 201.24854,122.23986 -32.97691,11.03974 -31.12448,-15.51193 -11.03973,-32.976914 15.51193,-31.124474 32.97691,-11.039738 31.12447,15.511928 11.03974,32.976916 z" transform="matrix(-0.42454061,1.2329555,-1.2329555,-0.42454061,248.95623,-106.29743)"/>
  </g>
</svg>
